<svg width="100%" height="100%" viewBox="0 0 93 43" fill="none" xmlns="http://www.w3.org/2000/svg">
    <path d="M83 43L93 34H83V43Z" fill="url(#paint0_linear_3326_966)"></path>
    <path
        d="M93 34L3 34C1.34315 34 1.17422e-07 32.6568 2.62268e-07 31L2.71011e-06 3C2.85495e-06 1.34315 1.34315 -3.83502e-07 3 -2.38655e-07L90 7.36713e-06C91.6569 7.51197e-06 93 1.34315 93 3.00001L93 34Z"
        fill="#07BF60"></path>
    <path
        d="M16.7164 23V11.8H20.4924C22.6524 11.8 24.2844 12.92 24.2844 15.272C24.2844 17.56 22.6204 18.744 20.5564 18.744H18.3164V23H16.7164ZM18.3164 17.304H20.3804C21.8364 17.304 22.6844 16.6 22.6844 15.256C22.6844 13.944 21.8204 13.24 20.3804 13.24H18.3164V17.304ZM29.0489 23.224C26.5529 23.224 24.9689 21.24 24.9689 19.048C24.9689 16.824 26.6009 14.856 29.0489 14.856C31.5129 14.856 33.1289 16.824 33.1289 19.048C33.1289 21.24 31.5129 23.224 29.0489 23.224ZM29.0489 21.784C30.5049 21.784 31.5609 20.616 31.5609 19.048C31.5609 17.464 30.5049 16.296 29.0489 16.296C27.5769 16.296 26.5369 17.464 26.5369 19.048C26.5369 20.616 27.5769 21.784 29.0489 21.784ZM39.0129 14.872C41.3009 14.872 42.8209 16.872 42.8209 19.048C42.8209 21.24 41.4129 23.224 39.0289 23.224C37.7809 23.224 36.9009 22.648 36.4049 21.976V26.28H34.8369V15.08H36.1329L36.3409 16.152C36.8049 15.528 37.6689 14.872 39.0129 14.872ZM38.8209 16.28C37.3809 16.28 36.3889 17.448 36.3889 19.048C36.3889 20.664 37.3809 21.816 38.8209 21.816C40.2289 21.816 41.2529 20.664 41.2529 19.048C41.2529 17.448 40.2289 16.28 38.8209 16.28ZM51.372 15.08V23H50.076L49.836 21.992C49.276 22.744 48.46 23.224 47.324 23.224C45.644 23.224 44.54 22.264 44.54 20.072V15.08H46.108V19.8C46.108 21.336 46.844 21.768 47.804 21.768C48.876 21.768 49.804 20.968 49.804 19.512V15.08H51.372ZM53.4463 23V11.8H55.0143V23H53.4463ZM59.4549 23.224C57.7909 23.224 56.7189 22.184 56.7189 20.808C56.7189 19.544 57.4549 18.552 59.8069 18.216L61.7109 17.944V17.768C61.7109 16.728 61.1829 16.152 60.0149 16.152C58.8629 16.152 58.3829 16.728 58.2389 17.592L56.8469 17.256C57.2149 15.72 58.2549 14.872 60.0469 14.872C61.9029 14.872 63.2789 15.8 63.2789 17.752V23H61.9509L61.7909 22.232C61.4069 22.76 60.7189 23.224 59.4549 23.224ZM59.8389 21.928C60.8149 21.928 61.7109 21.368 61.7109 20.184V19.144L59.9349 19.416C58.8629 19.576 58.2389 19.912 58.2389 20.728C58.2389 21.448 58.8469 21.928 59.8389 21.928ZM65.1963 23V15.08H66.4923L66.7323 16.072C67.0683 15.464 67.7883 14.856 68.7963 14.856C69.4683 14.856 69.9643 15.064 70.2203 15.256L69.6123 16.632C69.4523 16.504 69.1003 16.344 68.5883 16.344C67.5803 16.344 66.7643 17.192 66.7643 18.616V23H65.1963Z"
        fill="white"></path>
    <defs>
        <linearGradient id="paint0_linear_3326_966" x1="87" y1="37.375" x2="87.5755" y2="27.0042"
            gradientUnits="userSpaceOnUse">
            <stop stop-color="#07BF60"></stop>
            <stop offset="1" stop-color="#131722"></stop>
        </linearGradient>
    </defs>
</svg>